<mxfile host="65bd71144e">
    <diagram id="QdNze9m1QTjcTxiqEHmA" name="Page-1">
        <mxGraphModel dx="439" dy="1659" grid="1" gridSize="10" guides="1" tooltips="1" connect="1" arrows="1" fold="1" page="1" pageScale="1" pageWidth="827" pageHeight="1169" math="0" shadow="0">
            <root>
                <mxCell id="0"/>
                <mxCell id="1" parent="0"/>
                <mxCell id="2" value="手动执行" style="swimlane;" parent="1" vertex="1">
                    <mxGeometry x="70" y="-50" width="200" height="740" as="geometry"/>
                </mxCell>
                <mxCell id="5" value="" style="edgeStyle=none;html=1;" parent="2" source="3" target="4" edge="1">
                    <mxGeometry relative="1" as="geometry"/>
                </mxCell>
                <mxCell id="3" value="手动触发" style="strokeWidth=2;html=1;shape=mxgraph.flowchart.start_2;whiteSpace=wrap;" parent="2" vertex="1">
                    <mxGeometry x="50" y="40" width="100" height="100" as="geometry"/>
                </mxCell>
                <mxCell id="7" value="" style="edgeStyle=none;html=1;" edge="1" parent="2" source="4" target="6">
                    <mxGeometry relative="1" as="geometry"/>
                </mxCell>
                <mxCell id="4" value="加载工作项" style="whiteSpace=wrap;html=1;strokeWidth=2;" parent="2" vertex="1">
                    <mxGeometry x="40" y="180" width="120" height="40" as="geometry"/>
                </mxCell>
                <mxCell id="9" value="" style="edgeStyle=none;html=1;" edge="1" parent="2" source="6" target="8">
                    <mxGeometry relative="1" as="geometry"/>
                </mxCell>
                <mxCell id="6" value="加载扩展配置" style="whiteSpace=wrap;html=1;strokeWidth=2;" vertex="1" parent="2">
                    <mxGeometry x="40" y="260" width="120" height="40" as="geometry"/>
                </mxCell>
                <mxCell id="11" value="" style="edgeStyle=none;html=1;" edge="1" parent="2" source="8" target="10">
                    <mxGeometry relative="1" as="geometry"/>
                </mxCell>
                <mxCell id="8" value="执行前置准备（一般是通过扩展配置来执行）" style="whiteSpace=wrap;html=1;strokeWidth=2;" vertex="1" parent="2">
                    <mxGeometry x="40" y="340" width="120" height="80" as="geometry"/>
                </mxCell>
                <mxCell id="13" value="" style="edgeStyle=none;html=1;" edge="1" parent="2" source="10" target="12">
                    <mxGeometry relative="1" as="geometry"/>
                </mxCell>
                <mxCell id="10" value="执行脚本" style="whiteSpace=wrap;html=1;strokeWidth=2;" vertex="1" parent="2">
                    <mxGeometry x="40" y="450" width="120" height="40" as="geometry"/>
                </mxCell>
                <mxCell id="15" value="" style="edgeStyle=none;html=1;" edge="1" parent="2" source="12" target="14">
                    <mxGeometry relative="1" as="geometry"/>
                </mxCell>
                <mxCell id="12" value="执行后置收尾任务（一般来说也是通过扩展配置来执行）" style="whiteSpace=wrap;html=1;strokeWidth=2;" vertex="1" parent="2">
                    <mxGeometry x="40" y="520" width="120" height="60" as="geometry"/>
                </mxCell>
                <mxCell id="14" value="结束" style="strokeWidth=2;html=1;shape=mxgraph.flowchart.terminator;whiteSpace=wrap;" vertex="1" parent="2">
                    <mxGeometry x="50" y="620" width="100" height="60" as="geometry"/>
                </mxCell>
            </root>
        </mxGraphModel>
    </diagram>
</mxfile>